<?xml version="1.0" encoding="UTF-8" standalone="no"?><!DOCTYPE svg PUBLIC "-//W3C//DTD SVG 1.1//EN" "http://www.w3.org/Graphics/SVG/1.1/DTD/svg11.dtd"><svg width="100%" height="100%" viewBox="0 0 400 400" version="1.1" xmlns="http://www.w3.org/2000/svg" xmlns:xlink="http://www.w3.org/1999/xlink" xml:space="preserve" xmlns:serif="http://www.serif.com/" style="fill-rule:evenodd;clip-rule:evenodd;stroke-linecap:round;stroke-linejoin:round;stroke-miterlimit:1.5;"><g><ellipse cx="61.548" cy="340.562" rx="23.494" ry="23.97" style="fill:#7dc1e0;"/><path d="M311.615,259.681l-19.718,29.626c-7.354,11.049 -22.051,14.009 -32.969,6.639c-21.748,-14.681 -53.723,-36.265 -53.723,-36.265l-121.735,0c-30.322,0 -54.94,-25.116 -54.94,-56.053l0,-112.107c0,-30.937 24.617,-56.053 54.94,-56.054l233.06,0c30.323,0.001 54.94,25.117 54.94,56.054l0,112.107c0,30.937 -24.618,56.053 -54.94,56.053l-4.915,0Zm-36.864,-101.761c0.112,-1.361 0.167,-2.694 0.167,-3.998c0,-6.92 -1.556,-12.336 -4.669,-16.249c-3.113,-3.913 -7.588,-5.87 -13.425,-5.87c-3.724,0 -6.962,1.021 -9.714,3.063c-2.751,2.041 -4.863,4.863 -6.337,8.464c-1.473,3.601 -2.209,7.727 -2.209,12.378c0,7.146 1.709,12.761 5.128,16.844c3.418,4.084 8.185,6.125 14.3,6.125c5.558,0 10.672,-1.871 15.342,-5.614l-3.335,-4.679c-1.946,1.361 -3.808,2.353 -5.587,2.977c-1.779,0.624 -3.724,0.936 -5.837,0.936c-3.335,0 -6.059,-1.163 -8.171,-3.488c-2.112,-2.325 -3.335,-5.955 -3.669,-10.889l28.016,0Zm-89.551,19.736l0,-44.832l-7.671,0l0,44.832l7.671,0Zm33.186,0l14.925,-44.832l-8.088,0l-11.423,37.857l-11.507,-37.857l-8.338,0l15.175,44.832l9.256,0Zm-56.283,0l0,-32.157c0,-4.253 -1.125,-7.599 -3.377,-10.038c-2.251,-2.439 -5.378,-3.658 -9.38,-3.658c-5.225,0 -9.561,2.41 -13.008,7.231l0,-25.011l-7.671,0.851l0,62.782l7.671,0l0,-31.901c1.557,-2.496 3.224,-4.424 5.003,-5.785c1.779,-1.361 3.808,-2.042 6.087,-2.042c2.279,0 4.016,0.652 5.211,1.957c1.196,1.304 1.793,3.544 1.793,6.72l0,31.051l7.671,0Zm105.227,-26.031c0,-4.424 -0.861,-7.799 -2.584,-10.124c-1.724,-2.325 -4.308,-3.488 -7.755,-3.488c-6.281,0 -9.7,4.707 -10.256,14.122l20.595,0l0,-0.51Zm-86.049,-40.324c1.612,0 2.918,0.51 3.919,1.531c1,1.021 1.501,2.297 1.501,3.828c0,1.531 -0.501,2.793 -1.501,3.786c-1.001,0.992 -2.307,1.489 -3.919,1.489c-1.557,0 -2.835,-0.497 -3.836,-1.489c-1,-0.993 -1.501,-2.255 -1.501,-3.786c0,-1.531 0.501,-2.807 1.501,-3.828c1.001,-1.021 2.279,-1.531 3.836,-1.531Z" style="fill:#7dc1e0;stroke:#fff;stroke-width:1px;"/><path d="M138.553,289.064c11.587,0.015 21.006,-9.57 21.02,-21.392l0.053,-42.838c0.015,-11.821 -9.38,-21.431 -20.967,-21.446l-89.056,-0.114c-11.587,-0.015 -21.006,9.57 -21.02,21.392l-0.053,42.838c-0.015,11.821 9.38,21.431 20.967,21.446l1.878,0.002c0,0 4.024,6.062 7.521,11.33c2.805,4.226 8.419,5.364 12.595,2.553c8.317,-5.599 20.545,-13.831 20.545,-13.831l46.517,0.06Z" style="fill:#2196f3;"/></g></svg>